<svg width="547" height="521" viewBox="0 0 547 521" fill="none" xmlns="http://www.w3.org/2000/svg">
<path d="M354.247 520.37L273.396 450.293L193.206 520.37V378.843L273.396 308.715L354.247 378.843V520.37Z" fill="white"/>
<path d="M547 262.876L455.325 318.115L497.249 416.04L362.583 372.286L320.658 274.361L412.333 219.122L547 262.876Z" fill="white"/>
<path d="M361.62 0L385.86 104.227L491.916 94.6225L408.677 209.165L302.621 218.77L278.431 114.543L361.62 0Z" fill="white"/>
<path d="M54.3252 95.0302L160.941 104.228L184.622 0.407715L267.81 114.9L244.18 218.771L137.565 209.573L54.3252 95.0302Z" fill="white"/>
<path d="M49.7505 416.658L91.421 318.123L0 263.545L134.616 219.791L226.088 274.369L184.366 372.904L49.7505 416.658Z" fill="white"/>
</svg>
